PathFileType	4	(X/Y/Z)	Walk10.trc
DataRate	CameraRate	NumFrames	NumMarkers	Units	OrigDataRate	OrigDataStartFrame	OrigNumFrames
200.000000	200.000000	4	56	mm	200.000000	224	519
Frame#	Times		RBHD		C7		RASI		RACR1		RUA1		RElbow		RFA1		LFA1		RTH3		RTH2		RTB1		RTB3		RMT1		LTH2		RMT5		RLFC		LElbowM		RTH1		RWRU		RTB2		LElbow		RTB4		RMMAL		LACR1		LTH3		LTH4		LWRU		CLAV		LASI		LTB1		LPSI		RPSI		T10		LLFC		RTH4		LBHD		RCAR		LTB3		LTH1		LTB4		RToe		LWRR		LMT1		RBack		LMMAL		LCAL		LFHD		LTB2		LLMAL		RLMAL		LCAR		LToe		LMT5		RElbowM		LUA1		RCAL
			X1	Y1	Z1	X2	Y2	Z2	X3	Y3	Z3	X4	Y4	Z4	X5	Y5	Z5	X6	Y6	Z6	X7	Y7	Z7	X8	Y8	Z8	X9	Y9	Z9	X10	Y10	Z10	X11	Y11	Z11	X12	Y12	Z12	X13	Y13	Z13	X14	Y14	Z14	X15	Y15	Z15	X16	Y16	Z16	X17	Y17	Z17	X18	Y18	Z18	X19	Y19	Z19	X20	Y20	Z20	X21	Y21	Z21	X22	Y22	Z22	X23	Y23	Z23	X24	Y24	Z24	X25	Y25	Z25	X26	Y26	Z26	X27	Y27	Z27	X28	Y28	Z28	X29	Y29	Z29	X30	Y30	Z30	X31	Y31	Z31	X32	Y32	Z32	X33	Y33	Z33	X34	Y34	Z34	X35	Y35	Z35	X36	Y36	Z36	X37	Y37	Z37	X38	Y38	Z38	X39	Y39	Z39	X40	Y40	Z40	X41	Y41	Z41	X42	Y42	Z42	X43	Y43	Z43	X44	Y44	Z44	X45	Y45	Z45	X46	Y46	Z46	X47	Y47	Z47	X48	Y48	Z48	X49	Y49	Z49	X50	Y50	Z50	X51	Y51	Z51	X52	Y52	Z52	X53	Y53	Z53	X54	Y54	Z54	X55	Y55	Z55	X56	Y56	Z56

224	1.12	-530.67	1549.5	394.52	-571.69	1415.8	323.7	-491.85	911.59	452.65	-503.07	1363.1	475.86	-593.52	1185.7	554.55	-674.36	1078.1	573.01	-685.4	933.72	601.27	-498.94	983.67	-5.5189	-414.08	550.46	474.03	-403.78	667.08	452.78	-313.3	387.52	373.88	-261.15	204.5	373.28	-124.57	84.631	333.82	-545.63	619.02	161.97	-149.63	72.86	414.46	-374.67	459.56	453.39	-643.76	1083.5	100.79	-499.61	716.71	505.6	-742.48	813.78	599.8	-299.35	291.66	446.76	-621.66	1089.7	21.392	-285.51	299.04	375.08	-261.92	110.08	326.56	-533.88	1404.1	147.13	-636.35	550.88	137.38	-610.77	635.33	122.79	-476.56	866.77	2.927	-440.73	1328.2	309.46	-510.19	923.39	148.52	-686.66	338.85	215.38	-677.46	938.75	258.01	-676.35	935.82	363.06	-681.69	1110	309.03	-687.36	440.19	154.56	-455.98	633.14	493.84	-540.05	1549	256.84	-723.03	747.85	607.29	-786.02	182.51	230.98	-581.62	728.58	115.14	-738.52	261.81	224.35	-85.164	108.72	360.95	-413.59	907.57	35.538	-752.32	33.7	278.6	-644.43	1329.9	419.13	-867.04	107.54	293.73	-959.88	70.368	253.31	-355.54	1566.9	266.85	-763.77	271.57	157.65	-900.65	99.515	206.75	-282.89	85.651	411.58	-394.84	859.19	-12.746	-705.76	26.307	263.73	-784.15	31.274	189.58	-697.52	1062.5	480.14	-583.75	1217.2	45.053	-311.53	23.059	368.72
225	1.125	-523.43	1548.4	395.92	-564.61	1414.5	324.81	-483.95	910.79	453.19	-496.01	1361.9	477.04	-586.82	1184.6	555.17	-667.75	1076.7	573.32	-679.13	932.57	601.57	-490.78	983.57	-5.1712	-404.34	550.54	474.25	-394.26	667.3	452.93	-305.63	385.91	373.89	-255.78	202.24	373.07	-121.05	81.221	333.56	-538.38	618.09	161.48	-146.04	69.9	414.16	-365.2	458.76	453.19	-636.02	1082.4	101.37	-490.12	716.64	506.14	-736.63	812.84	600.07	-292.59	290.04	446.53	-614.05	1089.1	21.736	-278.93	297.01	374.9	-257.95	107.63	326.45	-526.64	1403.2	147.95	-629.72	550.07	137.65	-603.77	634.83	122.9	-468.07	866.87	3.4764	-433.36	1327.3	310.57	-502.82	922.3	148.97	-681.56	337.99	215.47	-669.51	937.83	258.4	-668.24	934.93	363.36	-674.14	1109	309.58	-680.97	439.67	154.85	-446.26	633.32	493.7	-532.98	1548.2	258.04	-717.43	746.88	607.44	-783.15	183.11	230.77	-574.57	727.77	115.83	-734.58	261.86	224.37	-81.093	104.76	360.65	-405.19	907.83	36.154	-752.25	33.677	278.56	-637.3	1328.6	419.83	-865.59	109.35	293.58	-958.84	73.832	252.97	-348.45	1566	268.2	-759.42	271.99	157.64	-899.04	101.87	206.37	-279.16	83.731	411.72	-385.85	859.59	-12.059	-705.8	26.343	263.87	-783.76	31.513	189.56	-690.81	1061.3	480.47	-576.39	1216.5	45.711	-308.95	22.542	369.36
226	1.13	-516.13	1547.4	397.17	-557.52	1413.5	325.81	-475.7	910.04	453.52	-488.99	1360.4	477.99	-579.95	1183.3	555.96	-660.77	1075.8	573.66	-672.7	931.42	602.09	-482.83	983.51	-4.7557	-395.25	550.4	474.33	-384.76	667.24	453.26	-298.47	384.19	373.71	-250.71	199.64	372.79	-118.05	77.553	333.4	-531.05	617.79	161.37	-143.4	66.365	413.71	-356.37	457.9	453.2	-628.57	1081.5	101.82	-480.84	716.74	506.21	-730.56	811.75	600.31	-286.01	287.93	446.31	-606.45	1088.5	22.291	-272.49	294.69	374.71	-254.59	104.99	326.38	-519.77	1402.4	148.89	-622.73	549.45	137.7	-596.46	634.64	122.65	-459.52	866.82	4.0827	-425.96	1326.3	311.44	-495.14	921.26	149.33	-676.03	337.23	215.6	-661.72	936.99	259.13	-660.38	934.08	364.04	-666.25	1107.7	310.16	-674.46	438.89	155.09	-436.7	633.18	493.74	-525.92	1547.4	259.22	-711.63	745.64	607.69	-780.13	184.01	230.59	-567.53	726.81	116.37	-730.41	261.96	224.37	-77.47	100.64	359.86	-396.89	908.19	36.8	-752.17	33.671	278.5	-630.17	1327.2	420.63	-863.83	111.2	293.23	-957.7	77.534	252.53	-341.35	1565.1	269.52	-755.11	272.14	157.44	-897.36	104.31	206.12	-275.79	81.829	411.79	-377.33	859.98	-11.463	-705.83	26.347	264.02	-783.29	31.693	189.56	-684.12	1060.2	480.94	-569.13	1215.8	46.376	-307.58	22.426	369.78
227	1.135	-509.08	1546.7	398.44	-550.39	1412.7	326.76	-467.61	909.39	453.98	-481.66	1359.4	478.95	-572.97	1182.2	556.65	-653.34	1074.6	574.19	-666.12	930.33	602.72	-474.74	983.24	-4.1057	-386.08	550.14	474.33	-375.25	667.03	454.02	-291.12	382.37	373.48	-245.48	197.4	371.99	-115.37	72.945	333.83	-523.89	616.86	161.41	-141.06	61.022	413.13	-347.52	457.24	453.28	-621.55	1080.8	102.17	-471.76	716.76	505.68	-724.24	810.75	600.37	-279.49	286.02	445.77	-598.73	1087.7	22.648	-266.15	292.71	374.24	-251.33	102.67	325.8	-512.53	1401.5	150.01	-615.46	548.72	137.88	-589.2	633.95	122.95	-451.02	866.83	4.5385	-418.83	1325.8	312.53	-487.32	920.27	149.61	-670.74	336.01	215.44	-653.84	936.04	259.47	-652.26	933.31	364.41	-658.61	1106.6	310.69	-667.58	438.19	155.15	-427.8	632.85	493.75	-518.62	1546.7	260.64	-705.24	744.73	607.89	-776.96	184.66	230.48	-560.29	726.15	116.69	-726.1	261.9	224.29	-74.1	95.026	358.93	-388.82	908.39	37.46	-752.05	33.642	278.46	-622.89	1326	421.64	-861.88	113.25	292.85	-956.33	81.433	251.99	-334.14	1564.3	270.76	-750.26	272.52	157.39	-895.41	106.93	205.72	-272.64	79.563	411.55	-369.16	860.47	-10.946	-705.9	26.32	264.14	-782.79	31.839	189.61	-676.86	1059.3	481.5	-561.83	1215.2	47.266	-306.97	23.323	369.09
